{"asset":{"version":"2.0","generator":"Blockbench 5.1.6 glTF exporter"},"scenes":[{"nodes":[16,23,28],"name":"blockbench_export"}],"scene":0,"nodes":[{"translation":[-0.031591874999999936,0.033701875000000214,-0.030110000000000026],"name":"Arm1","mesh":0},{"rotation":[6.123233995736766e-17,1,6.123233995736766e-17,3.749399456654644e-33],"translation":[0.6275243749999999,-0.323814375,0.317323125],"name":"LeftArm","children":[0]},{"translation":[-0.029067500000000024,-0.011962499999999654,-0.0002868750000000059],"name":"Right2","mesh":1},{"translation":[-0.625,-0.2703375000000001,0.35],"name":"RightArm","children":[2]},{"translation":[0,0.39178749999999996,-0.0875],"name":"Head","mesh":2},{"rotation":[0.7071067811865475,0,0,0.7071067811865476],"translation":[0,0.009374999999999911,0.6625],"name":"Face","mesh":3},{"translation":[0,-0.03125,0.375],"name":"Head","children":[4,5]},{"translation":[0,-0.3187500000000001,0.2625],"name":"Torso","mesh":4},{"rotation":[0.7071067811865475,0,0,0.7071067811865476],"translation":[0,-0.006250000000000089,1.0125],"name":"T-shirt","mesh":5},{"translation":[0,-0.640625,0.024999999999999967],"name":"Torso","children":[7,8]},{"translation":[-0.03125,0.6984375,-0.3625],"name":"Upper","children":[1,3,6,9]},{"translation":[-0.15625,-0.3125,-0.0625],"name":"Leg2","mesh":6},{"translation":[-0.3125,0.625,0],"name":"RightLeg","children":[11]},{"translation":[0.46875,-0.3125,-0.0625],"name":"Leg1","mesh":7},{"translation":[-0.3125,0.625,0],"name":"LeftLeg","children":[13]},{"translation":[0.28125,-1.1984375,-0.012499999999999997],"name":"Lower","children":[12,14]},{"translation":[0.03125,1.8234375,0.075],"name":"Player","children":[10,15]},{"translation":[-1.281591875,0.041514375000000214,0.03238999999999999],"name":"LeftS","mesh":8},{"rotation":[6.123233995736766e-17,1,6.123233995736766e-17,3.749399456654644e-33],"translation":[0.6275243749999999,-0.323814375,0.317323125],"name":"LeftS","children":[17]},{"translation":[-0.029067500000000024,-0.011962499999999654,-0.0002868750000000059],"name":"RightS","mesh":9},{"translation":[-0.625,-0.2703375000000001,0.35],"name":"RightS","children":[19]},{"translation":[0,-0.3062499999999999,0.2625],"name":"TorsoS","mesh":10},{"translation":[0,-0.640625,0.024999999999999967],"name":"TorsoS","children":[21]},{"translation":[0,2.521875,-0.2875],"name":"Shirt","children":[18,20,22]},{"translation":[-0.15625,-0.3125,-0.0625],"name":"RightP","mesh":11},{"translation":[-0.3125,0.625,0],"name":"Right","children":[24]},{"translation":[0.46875,-0.3125,-0.0625],"name":"LeftP","mesh":12},{"translation":[-0.3125,0.625,0],"name":"Left","children":[26]},{"translation":[0.3125,0.625,0.0625],"name":"Pants","children":[25,27]}],"bufferViews":[{"buffer":0,"byteOffset":0,"byteLength":13692,"target":34962,"byteStride":12},{"buffer":0,"byteOffset":13692,"byteLength":13692,"target":34962,"byteStride":12},{"buffer":0,"byteOffset":27384,"byteLength":9128,"target":34962,"byteStride":8},{"buffer":0,"byteOffset":36512,"byteLength":2300,"target":34963},{"buffer":0,"byteOffset":38812,"byteLength":14040,"target":34962,"byteStride":12},{"buffer":0,"byteOffset":52852,"byteLength":14040,"target":34962,"byteStride":12},{"buffer":0,"byteOffset":66892,"byteLength":9360,"target":34962,"byteStride":8},{"buffer":0,"byteOffset":76252,"byteLength":2352,"target":34963},{"buffer":0,"byteOffset":78604,"byteLength":103680,"target":34962,"byteStride":12},{"buffer":0,"byteOffset":182284,"byteLength":103680,"target":34962,"byteStride":12},{"buffer":0,"byteOffset":285964,"byteLength":69120,"target":34962,"byteStride":8},{"buffer":0,"byteOffset":355084,"byteLength":17280,"target":34963},{"buffer":0,"byteOffset":372364,"byteLength":48,"target":34962,"byteStride":12},{"buffer":0,"byteOffset":372412,"byteLength":48,"target":34962,"byteStride":12},{"buffer":0,"byteOffset":372460,"byteLength":32,"target":34962,"byteStride":8},{"buffer":0,"byteOffset":372492,"byteLength":12,"target":34963},{"buffer":0,"byteOffset":372504,"byteLength":8892,"target":34962,"byteStride":12},{"buffer":0,"byteOffset":381396,"byteLength":8892,"target":34962,"byteStride":12},{"buffer":0,"byteOffset":390288,"byteLength":5928,"target":34962,"byteStride":8},{"buffer":0,"byteOffset":396216,"byteLength":1496,"target":34963},{"buffer":0,"byteOffset":397712,"byteLength":48,"target":34962,"byteStride":12},{"buffer":0,"byteOffset":397760,"byteLength":48,"target":34962,"byteStride":12},{"buffer":0,"byteOffset":397808,"byteLength":32,"target":34962,"byteStride":8},{"buffer":0,"byteOffset":397840,"byteLength":12,"target":34963},{"buffer":0,"byteOffset":397852,"byteLength":5904,"target":34962,"byteStride":12},{"buffer":0,"byteOffset":403756,"byteLength":5904,"target":34962,"byteStride":12},{"buffer":0,"byteOffset":409660,"byteLength":3936,"target":34962,"byteStride":8},{"buffer":0,"byteOffset":413596,"byteLength":984,"target":34963},{"buffer":0,"byteOffset":414580,"byteLength":5904,"target":34962,"byteStride":12},{"buffer":0,"byteOffset":420484,"byteLength":5904,"target":34962,"byteStride":12},{"buffer":0,"byteOffset":426388,"byteLength":3936,"target":34962,"byteStride":8},{"buffer":0,"byteOffset":430324,"byteLength":984,"target":34963},{"buffer":0,"byteOffset":431308,"byteLength":14040,"target":34962,"byteStride":12},{"buffer":0,"byteOffset":445348,"byteLength":14040,"target":34962,"byteStride":12},{"buffer":0,"byteOffset":459388,"byteLength":9360,"target":34962,"byteStride":8},{"buffer":0,"byteOffset":468748,"byteLength":2352,"target":34963},{"buffer":0,"byteOffset":471100,"byteLength":14040,"target":34962,"byteStride":12},{"buffer":0,"byteOffset":485140,"byteLength":14040,"target":34962,"byteStride":12},{"buffer":0,"byteOffset":499180,"byteLength":9360,"target":34962,"byteStride":8},{"buffer":0,"byteOffset":508540,"byteLength":2352,"target":34963},{"buffer":0,"byteOffset":510892,"byteLength":8892,"target":34962,"byteStride":12},{"buffer":0,"byteOffset":519784,"byteLength":8892,"target":34962,"byteStride":12},{"buffer":0,"byteOffset":528676,"byteLength":5928,"target":34962,"byteStride":8},{"buffer":0,"byteOffset":534604,"byteLength":1496,"target":34963},{"buffer":0,"byteOffset":536100,"byteLength":5904,"target":34962,"byteStride":12},{"buffer":0,"byteOffset":542004,"byteLength":5904,"target":34962,"byteStride":12},{"buffer":0,"byteOffset":547908,"byteLength":3936,"target":34962,"byteStride":8},{"buffer":0,"byteOffset":551844,"byteLength":984,"target":34963},{"buffer":0,"byteOffset":552828,"byteLength":5904,"target":34962,"byteStride":12},{"buffer":0,"byteOffset":558732,"byteLength":5904,"target":34962,"byteStride":12},{"buffer":0,"byteOffset":564636,"byteLength":3936,"target":34962,"byteStride":8},{"buffer":0,"byteOffset":568572,"byteLength":984,"target":34963},{"buffer":0,"byteOffset":569556,"byteLength":64},{"buffer":0,"byteOffset":569620,"byteLength":256},{"buffer":0,"byteOffset":569876,"byteLength":64},{"buffer":0,"byteOffset":569940,"byteLength":192},{"buffer":0,"byteOffset":570132,"byteLength":64},{"buffer":0,"byteOffset":570196,"byteLength":256},{"buffer":0,"byteOffset":570452,"byteLength":64},{"buffer":0,"byteOffset":570516,"byteLength":192},{"buffer":0,"byteOffset":570708,"byteLength":8},{"buffer":0,"byteOffset":570716,"byteLength":32},{"buffer":0,"byteOffset":570748,"byteLength":8},{"buffer":0,"byteOffset":570756,"byteLength":32},{"buffer":0,"byteOffset":570788,"byteLength":64},{"buffer":0,"byteOffset":570852,"byteLength":192},{"buffer":0,"byteOffset":571044,"byteLength":8},{"buffer":0,"byteOffset":571052,"byteLength":32},{"buffer":0,"byteOffset":571084,"byteLength":8},{"buffer":0,"byteOffset":571092,"byteLength":32},{"buffer":0,"byteOffset":571124,"byteLength":64},{"buffer":0,"byteOffset":571188,"byteLength":256},{"buffer":0,"byteOffset":571444,"byteLength":64},{"buffer":0,"byteOffset":571508,"byteLength":192},{"buffer":0,"byteOffset":571700,"byteLength":64},{"buffer":0,"byteOffset":571764,"byteLength":256},{"buffer":0,"byteOffset":572020,"byteLength":64},{"buffer":0,"byteOffset":572084,"byteLength":192},{"buffer":0,"byteOffset":572276,"byteLength":24},{"buffer":0,"byteOffset":572300,"byteLength":72},{"buffer":0,"byteOffset":572372,"byteLength":64},{"buffer":0,"byteOffset":572436,"byteLength":256},{"buffer":0,"byteOffset":572692,"byteLength":64},{"buffer":0,"byteOffset":572756,"byteLength":256},{"buffer":0,"byteOffset":573012,"byteLength":64},{"buffer":0,"byteOffset":573076,"byteLength":256},{"buffer":0,"byteOffset":573332,"byteLength":8},{"buffer":0,"byteOffset":573340,"byteLength":24},{"buffer":0,"byteOffset":573364,"byteLength":64},{"buffer":0,"byteOffset":573428,"byteLength":256},{"buffer":0,"byteOffset":573684,"byteLength":64},{"buffer":0,"byteOffset":573748,"byteLength":256},{"buffer":0,"byteOffset":574004,"byteLength":8},{"buffer":0,"byteOffset":574012,"byteLength":24},{"buffer":0,"byteOffset":574036,"byteLength":64},{"buffer":0,"byteOffset":574100,"byteLength":256},{"buffer":0,"byteOffset":574356,"byteLength":64},{"buffer":0,"byteOffset":574420,"byteLength":256},{"buffer":0,"byteOffset":574676,"byteLength":20},{"buffer":0,"byteOffset":574696,"byteLength":60},{"buffer":0,"byteOffset":574756,"byteLength":64},{"buffer":0,"byteOffset":574820,"byteLength":256},{"buffer":0,"byteOffset":575076,"byteLength":4},{"buffer":0,"byteOffset":575080,"byteLength":16},{"buffer":0,"byteOffset":575096,"byteLength":4},{"buffer":0,"byteOffset":575100,"byteLength":16},{"buffer":0,"byteOffset":575116,"byteLength":4},{"buffer":0,"byteOffset":575120,"byteLength":16},{"buffer":0,"byteOffset":575136,"byteLength":4},{"buffer":0,"byteOffset":575140,"byteLength":12},{"buffer":0,"byteOffset":575152,"byteLength":4},{"buffer":0,"byteOffset":575156,"byteLength":16},{"buffer":0,"byteOffset":575172,"byteLength":8},{"buffer":0,"byteOffset":575180,"byteLength":32},{"buffer":0,"byteOffset":575212,"byteLength":4},{"buffer":0,"byteOffset":575216,"byteLength":16},{"buffer":0,"byteOffset":575232,"byteLength":4},{"buffer":0,"byteOffset":575236,"byteLength":12},{"buffer":0,"byteOffset":575248,"byteLength":4},{"buffer":0,"byteOffset":575252,"byteLength":16},{"buffer":0,"byteOffset":575268,"byteLength":4},{"buffer":0,"byteOffset":575272,"byteLength":16},{"buffer":0,"byteOffset":575288,"byteLength":4},{"buffer":0,"byteOffset":575292,"byteLength":12},{"buffer":0,"byteOffset":575304,"byteLength":4},{"buffer":0,"byteOffset":575308,"byteLength":16},{"buffer":0,"byteOffset":575324,"byteLength":4},{"buffer":0,"byteOffset":575328,"byteLength":16},{"buffer":0,"byteOffset":575344,"byteLength":4},{"buffer":0,"byteOffset":575348,"byteLength":12},{"buffer":0,"byteOffset":575360,"byteLength":4},{"buffer":0,"byteOffset":575364,"byteLength":16},{"buffer":0,"byteOffset":575380,"byteLength":4},{"buffer":0,"byteOffset":575384,"byteLength":12},{"buffer":0,"byteOffset":575396,"byteLength":4},{"buffer":0,"byteOffset":575400,"byteLength":16},{"buffer":0,"byteOffset":575416,"byteLength":4},{"buffer":0,"byteOffset":575420,"byteLength":12},{"buffer":0,"byteOffset":575432,"byteLength":4},{"buffer":0,"byteOffset":575436,"byteLength":16},{"buffer":0,"byteOffset":575452,"byteLength":8},{"buffer":0,"byteOffset":575460,"byteLength":32},{"buffer":0,"byteOffset":575492,"byteLength":4},{"buffer":0,"byteOffset":575496,"byteLength":16},{"buffer":0,"byteOffset":575512,"byteLength":4},{"buffer":0,"byteOffset":575516,"byteLength":12},{"buffer":0,"byteOffset":575528,"byteLength":4},{"buffer":0,"byteOffset":575532,"byteLength":16},{"buffer":0,"byteOffset":575548,"byteLength":4},{"buffer":0,"byteOffset":575552,"byteLength":16},{"buffer":0,"byteOffset":575568,"byteLength":4},{"buffer":0,"byteOffset":575572,"byteLength":12},{"buffer":0,"byteOffset":575584,"byteLength":4},{"buffer":0,"byteOffset":575588,"byteLength":16},{"buffer":0,"byteOffset":575604,"byteLength":4},{"buffer":0,"byteOffset":575608,"byteLength":12},{"buffer":0,"byteOffset":575620,"byteLength":64},{"buffer":0,"byteOffset":575684,"byteLength":256},{"buffer":0,"byteOffset":575940,"byteLength":64},{"buffer":0,"byteOffset":576004,"byteLength":256},{"buffer":0,"byteOffset":576260,"byteLength":68},{"buffer":0,"byteOffset":576328,"byteLength":272},{"buffer":0,"byteOffset":576600,"byteLength":48},{"buffer":0,"byteOffset":576648,"byteLength":144},{"buffer":0,"byteOffset":576792,"byteLength":64},{"buffer":0,"byteOffset":576856,"byteLength":256},{"buffer":0,"byteOffset":577112,"byteLength":68},{"buffer":0,"byteOffset":577180,"byteLength":272},{"buffer":0,"byteOffset":577452,"byteLength":48},{"buffer":0,"byteOffset":577500,"byteLength":144},{"buffer":0,"byteOffset":577644,"byteLength":64},{"buffer":0,"byteOffset":577708,"byteLength":256},{"buffer":0,"byteOffset":577964,"byteLength":4},{"buffer":0,"byteOffset":577968,"byteLength":16},{"buffer":0,"byteOffset":577984,"byteLength":4},{"buffer":0,"byteOffset":577988,"byteLength":16},{"buffer":0,"byteOffset":578004,"byteLength":4},{"buffer":0,"byteOffset":578008,"byteLength":16},{"buffer":0,"byteOffset":578024,"byteLength":4},{"buffer":0,"byteOffset":578028,"byteLength":16},{"buffer":0,"byteOffset":578044,"byteLength":4},{"buffer":0,"byteOffset":578048,"byteLength":12},{"buffer":0,"byteOffset":578060,"byteLength":4},{"buffer":0,"byteOffset":578064,"byteLength":16},{"buffer":0,"byteOffset":578080,"byteLength":4},{"buffer":0,"byteOffset":578084,"byteLength":16},{"buffer":0,"byteOffset":578100,"byteLength":4},{"buffer":0,"byteOffset":578104,"byteLength":12},{"buffer":0,"byteOffset":578116,"byteLength":4},{"buffer":0,"byteOffset":578120,"byteLength":16}],"buffers":[{"byteLength":578136,"uri":"data:application/octet-stream;base64,"}],"accessors":[{"bufferView":0,"componentType":5126,"count":1141,"max":[0.03712281212210655,0.26688843965530396,0.3125],"min":[-0.6503772139549255,-0.983111560344696,-0.3125],"type":"VEC3"},{"bufferView":1,"componentType":5126,"count":1141,"max":[0.98811274766922,0.9999688267707825,1],"min":[-0.9952354431152344,-0.9442082047462463,-0.9998477697372437],"type":"VEC3"},{"bufferView":2,"componentType":5126,"count":1141,"max":[0.998046875,0.255859375],"min":[0.001953125,0.236328125],"type":"VEC2"},{"bufferView":3,"componentType":5123,"count":1149,"max":[1140],"min":[0],"type":"SCALAR"},{"bufferView":4,"componentType":5126,"count":1170,"max":[0.037255000323057175,0.26509374380111694,0.3125],"min":[-0.6505093574523926,-0.981316864490509,-0.3125],"type":"VEC3"},{"bufferView":5,"componentType":5126,"count":1170,"max":[0.9880566596984863,0.9999690055847168,1],"min":[-0.9952293038368225,-0.9444826245307922,-0.9998459219932556],"type":"VEC3"},{"bufferView":6,"componentType":5126,"count":1170,"max":[0.998046875,0.240234375],"min":[0.001953125,0.205078125],"type":"VEC2"},{"bufferView":7,"componentType":5123,"count":1176,"max":[1169],"min":[0],"type":"SCALAR"},{"bufferView":8,"componentType":5126,"count":8640,"max":[0.34375,0.234375,0.40625],"min":[-0.34375,-0.453125,-0.28125],"type":"VEC3"},{"bufferView":9,"componentType":5126,"count":8640,"max":[0.9987955689430237,1,0.998262882232666],"min":[-0.9987955689430237,-1,-0.9987955689430237],"type":"VEC3"},{"bufferView":10,"componentType":5126,"count":8640,"max":[0.998046875,0.20903438329696655],"min":[0.001953125,0.033203125],"type":"VEC2"},{"bufferView":11,"componentType":5123,"count":8640,"max":[8639],"min":[0],"type":"SCALAR"},{"bufferView":12,"componentType":5126,"count":4,"max":[0.34375,-1.03125,0.046875],"min":[-0.34375,-1.03125,-0.640625],"type":"VEC3"},{"bufferView":13,"componentType":5126,"count":4,"max":[0,1,0],"min":[0,1,0],"type":"VEC3"},{"bufferView":14,"componentType":5126,"count":4,"max":[1,1],"min":[0,0],"type":"VEC2"},{"bufferView":15,"componentType":5123,"count":6,"max":[3],"min":[0],"type":"SCALAR"},{"bufferView":16,"componentType":5126,"count":741,"max":[0.625,0.9375,0.375],"min":[-0.625,-0.3125,-0.25],"type":"VEC3"},{"bufferView":17,"componentType":5126,"count":741,"max":[0.9921318292617798,0.9845482707023621,0.9986058473587036],"min":[-0.9755284190177917,-0.9845482707023621,-0.9986058473587036],"type":"VEC3"},{"bufferView":18,"componentType":5126,"count":741,"max":[0.998046875,0.037109375],"min":[0.001953125,0.017578125],"type":"VEC2"},{"bufferView":19,"componentType":5123,"count":747,"max":[740],"min":[0],"type":"SCALAR"},{"bufferView":20,"componentType":5126,"count":4,"max":[0.625,-1.0078125,0.625],"min":[-0.625,-1.0078125,-0.625],"type":"VEC3"},{"bufferView":21,"componentType":5126,"count":4,"max":[0,1,0],"min":[0,1,0],"type":"VEC3"},{"bufferView":22,"componentType":5126,"count":4,"max":[1,1],"min":[0,0],"type":"VEC2"},{"bufferView":23,"componentType":5123,"count":6,"max":[3],"min":[0],"type":"SCALAR"},{"bufferView":24,"componentType":5126,"count":492,"max":[0.15625,0.3125,0.375],"min":[-0.46875,-0.9375,-0.25],"type":"VEC3"},{"bufferView":25,"componentType":5126,"count":492,"max":[0.9726670980453491,0.9167130589485168,0.9913402795791626],"min":[-0.9726670980453491,-0.9167130589485168,-0.9913402795791626],"type":"VEC3"},{"bufferView":26,"componentType":5126,"count":492,"max":[0.998046875,0.013671875],"min":[0.001953125,0.001953125],"type":"VEC2"},{"bufferView":27,"componentType":5123,"count":492,"max":[491],"min":[0],"type":"SCALAR"},{"bufferView":28,"componentType":5126,"count":492,"max":[0.15625,0.3125,0.375],"min":[-0.46875,-0.9375,-0.25],"type":"VEC3"},{"bufferView":29,"componentType":5126,"count":492,"max":[0.9726670980453491,0.9167130589485168,0.9913402795791626],"min":[-0.9726670980453491,-0.9167130589485168,-0.9913402795791626],"type":"VEC3"},{"bufferView":30,"componentType":5126,"count":492,"max":[0.998046875,0.021484375],"min":[0.001953125,0.009765625],"type":"VEC2"},{"bufferView":31,"componentType":5123,"count":492,"max":[491],"min":[0],"type":"SCALAR"},{"bufferView":32,"componentType":5126,"count":1170,"max":[1.2933728694915771,0.2731384336948395,0.2562499940395355],"min":[0.5933728218078613,-0.989361584186554,-0.3812499940395355],"type":"VEC3"},{"bufferView":33,"componentType":5126,"count":1170,"max":[0.987986147403717,0.9999694228172302,0.9998452663421631],"min":[-0.9952428936958313,-0.9449609518051147,-1],"type":"VEC3"},{"bufferView":34,"componentType":5126,"count":1170,"max":[0.973014235496521,0.95703125],"min":[0,0],"type":"VEC2"},{"bufferView":35,"componentType":5123,"count":1176,"max":[1169],"min":[0],"type":"SCALAR"},{"bufferView":36,"componentType":5126,"count":1170,"max":[0.04337281361222267,0.2731384336948395,0.3187499940395355],"min":[-0.6566271781921387,-0.989361584186554,-0.3187499940395355],"type":"VEC3"},{"bufferView":37,"componentType":5126,"count":1170,"max":[0.987986147403717,0.9999694228172302,1],"min":[-0.9952428936958313,-0.9449609518051147,-0.9998452663421631],"type":"VEC3"},{"bufferView":38,"componentType":5126,"count":1170,"max":[0.48828125,0.95703125],"min":[0,0],"type":"VEC2"},{"bufferView":39,"componentType":5123,"count":1176,"max":[1169],"min":[0],"type":"SCALAR"},{"bufferView":40,"componentType":5126,"count":741,"max":[0.6312500238418579,0.9312499761581421,0.3812499940395355],"min":[-0.6312500238418579,-0.33125001192092896,-0.2562499940395355],"type":"VEC3"},{"bufferView":41,"componentType":5126,"count":741,"max":[0.9922793507575989,0.9846999049186707,0.9985782504081726],"min":[-0.9758394956588745,-0.9846999049186707,-0.9985782504081726],"type":"VEC3"},{"bufferView":42,"componentType":5126,"count":741,"max":[0.822265625,0.4551194906234741],"min":[0,0],"type":"VEC2"},{"bufferView":43,"componentType":5123,"count":747,"max":[740],"min":[0],"type":"SCALAR"},{"bufferView":44,"componentType":5126,"count":492,"max":[0.15937499701976776,0.31562501192092896,0.37812501192092896],"min":[-0.47187501192092896,-0.940625011920929,-0.25312501192092896],"type":"VEC3"},{"bufferView":45,"componentType":5126,"count":492,"max":[0.9726548790931702,0.9172922372817993,0.991322934627533],"min":[-0.9726548790931702,-0.9172922372817993,-0.991322934627533],"type":"VEC3"},{"bufferView":46,"componentType":5126,"count":492,"max":[null,null],"min":[null,null],"type":"VEC2"},{"bufferView":47,"componentType":5123,"count":492,"max":[491],"min":[0],"type":"SCALAR"},{"bufferView":48,"componentType":5126,"count":492,"max":[0.15937499701976776,0.31562501192092896,0.37812501192092896],"min":[-0.47187501192092896,-0.940625011920929,-0.25312501192092896],"type":"VEC3"},{"bufferView":49,"componentType":5126,"count":492,"max":[0.9726548790931702,0.9172922372817993,0.991322934627533],"min":[-0.9726548790931702,-0.9172922372817993,-0.991322934627533],"type":"VEC3"},{"bufferView":50,"componentType":5126,"count":492,"max":[null,null],"min":[null,null],"type":"VEC2"},{"bufferView":51,"componentType":5123,"count":492,"max":[491],"min":[0],"type":"SCALAR"},{"bufferView":52,"componentType":5126,"count":16,"max":[1],"min":[0],"type":"SCALAR"},{"bufferView":53,"componentType":5126,"count":16,"max":[6.123234262925839e-17,1,6.123234262925839e-17,0.08816027641296387],"min":[5.559566262008114e-17,0.9961063265800476,5.559566262008114e-17,3.7493993930529855e-33],"type":"VEC4"},{"bufferView":54,"componentType":5126,"count":16,"max":[1],"min":[0],"type":"SCALAR"},{"bufferView":55,"componentType":5126,"count":16,"max":[0.6275243759155273,-0.32381436228752136,0.38763561844825745],"min":[0.6275243759155273,-0.43318936228752136,0.3126935064792633],"type":"VEC3"},{"bufferView":56,"componentType":5126,"count":16,"max":[1],"min":[0],"type":"SCALAR"},{"bufferView":57,"componentType":5126,"count":16,"max":[0,0.08957032859325409,0,1],"min":[0,-0.006464137230068445,0,0.9959805011749268],"type":"VEC4"},{"bufferView":58,"componentType":5126,"count":16,"max":[1],"min":[0],"type":"SCALAR"},{"bufferView":59,"componentType":5126,"count":16,"max":[-0.625,-0.2703374922275543,0.4203124940395355],"min":[-0.625,-0.3797124922275543,0.3453703820705414],"type":"VEC3"},{"bufferView":60,"componentType":5126,"count":2,"max":[0.5],"min":[0],"type":"SCALAR"},{"bufferView":61,"componentType":5126,"count":2,"max":[0,0.04361938685178757,0,0.9990482330322266],"min":[0,0.04361938685178757,0,0.9990482330322266],"type":"VEC4"},{"bufferView":62,"componentType":5126,"count":2,"max":[0.5],"min":[0],"type":"SCALAR"},{"bufferView":63,"componentType":5126,"count":2,"max":[0,-0.04361938685178757,0,0.9990482330322266],"min":[0,-0.04361938685178757,0,0.9990482330322266],"type":"VEC4"},{"bufferView":64,"componentType":5126,"count":16,"max":[1],"min":[0],"type":"SCALAR"},{"bufferView":65,"componentType":5126,"count":16,"max":[-0.03125,0.698437511920929,-0.36250001192092896],"min":[-0.03125,0.6703125238418579,-0.37812501192092896],"type":"VEC3"},{"bufferView":66,"componentType":5126,"count":2,"max":[0.5],"min":[0],"type":"SCALAR"},{"bufferView":67,"componentType":5126,"count":2,"max":[0,0.04361938685178757,0,0.9990482330322266],"min":[0,0.04361938685178757,0,0.9990482330322266],"type":"VEC4"},{"bufferView":68,"componentType":5126,"count":2,"max":[0.5],"min":[0],"type":"SCALAR"},{"bufferView":69,"componentType":5126,"count":2,"max":[0,-0.04361938685178757,0,0.9990482330322266],"min":[0,-0.04361938685178757,0,0.9990482330322266],"type":"VEC4"},{"bufferView":70,"componentType":5126,"count":16,"max":[1],"min":[0],"type":"SCALAR"},{"bufferView":71,"componentType":5126,"count":16,"max":[6.123234262925839e-17,1,6.123234262925839e-17,0.08816027641296387],"min":[5.559566262008114e-17,0.9961063265800476,5.559566262008114e-17,3.7493993930529855e-33],"type":"VEC4"},{"bufferView":72,"componentType":5126,"count":16,"max":[1],"min":[0],"type":"SCALAR"},{"bufferView":73,"componentType":5126,"count":16,"max":[0.6347362995147705,-0.3347518742084503,0.3744472563266754],"min":[0.627503514289856,-0.4675643742084503,0.3089757561683655],"type":"VEC3"},{"bufferView":74,"componentType":5126,"count":16,"max":[1],"min":[0],"type":"SCALAR"},{"bufferView":75,"componentType":5126,"count":16,"max":[0,0.08957032859325409,0,1],"min":[0,-0.006464137230068445,0,0.9959805011749268],"type":"VEC4"},{"bufferView":76,"componentType":5126,"count":16,"max":[1],"min":[0],"type":"SCALAR"},{"bufferView":77,"componentType":5126,"count":16,"max":[-0.624839186668396,-0.2703374922275543,0.40954816341400146],"min":[-0.6271706223487854,-0.4109624922275543,0.34142112731933594],"type":"VEC3"},{"bufferView":78,"componentType":5126,"count":6,"max":[1],"min":[0],"type":"SCALAR"},{"bufferView":79,"componentType":5126,"count":6,"max":[0,-0.640625,0.02500000037252903],"min":[-0.0078125,-0.6653125286102295,0.006562499795109034],"type":"VEC3"},{"bufferView":80,"componentType":5126,"count":16,"max":[1],"min":[0],"type":"SCALAR"},{"bufferView":81,"componentType":5126,"count":16,"max":[-5.657130560897519e-17,-0.9238795042037964,0.3826834261417389,2.3432602348612458e-17],"min":[-6.123234262925839e-17,-1,-0.3826834261417389,-2.3432602348612458e-17],"type":"VEC4"},{"bufferView":82,"componentType":5126,"count":16,"max":[1],"min":[0],"type":"SCALAR"},{"bufferView":83,"componentType":5126,"count":16,"max":[0.3826834261417389,0,0,1],"min":[-0.3826834261417389,0,0,0.9238795042037964],"type":"VEC4"},{"bufferView":84,"componentType":5126,"count":16,"max":[1],"min":[0],"type":"SCALAR"},{"bufferView":85,"componentType":5126,"count":16,"max":[0.3826834261417389,0,0,1],"min":[-0.3826834261417389,0,0,0.9238795042037964],"type":"VEC4"},{"bufferView":86,"componentType":5126,"count":2,"max":[0.5],"min":[0],"type":"SCALAR"},{"bufferView":87,"componentType":5126,"count":2,"max":[-0.3125,0.625,0],"min":[-0.3125,0.625,0],"type":"VEC3"},{"bufferView":88,"componentType":5126,"count":16,"max":[1],"min":[0],"type":"SCALAR"},{"bufferView":89,"componentType":5126,"count":16,"max":[0.3826834261417389,0,0,1],"min":[-0.3826834261417389,0,0,0.9238795042037964],"type":"VEC4"},{"bufferView":90,"componentType":5126,"count":16,"max":[1],"min":[0],"type":"SCALAR"},{"bufferView":91,"componentType":5126,"count":16,"max":[0.3826834261417389,0,0,1],"min":[-0.3826834261417389,0,0,0.9238795042037964],"type":"VEC4"},{"bufferView":92,"componentType":5126,"count":2,"max":[0.5],"min":[0],"type":"SCALAR"},{"bufferView":93,"componentType":5126,"count":2,"max":[-0.3125,0.625,0],"min":[-0.3125,0.625,0],"type":"VEC3"},{"bufferView":94,"componentType":5126,"count":16,"max":[1],"min":[0],"type":"SCALAR"},{"bufferView":95,"componentType":5126,"count":16,"max":[0.3826834261417389,0,0,1],"min":[-0.3826834261417389,0,0,0.9238795042037964],"type":"VEC4"},{"bufferView":96,"componentType":5126,"count":16,"max":[1],"min":[0],"type":"SCALAR"},{"bufferView":97,"componentType":5126,"count":16,"max":[-5.657130560897519e-17,-0.9238795042037964,0.3826834261417389,2.3432602348612458e-17],"min":[-6.123234262925839e-17,-1,-0.3826834261417389,-2.3432602348612458e-17],"type":"VEC4"},{"bufferView":98,"componentType":5126,"count":5,"max":[1],"min":[0],"type":"SCALAR"},{"bufferView":99,"componentType":5126,"count":5,"max":[0.6275243759155273,-0.32881438732147217,0.32505711913108826],"min":[0.6275243759155273,-0.3315483629703522,0.3132384121417999],"type":"VEC3"},{"bufferView":100,"componentType":5126,"count":16,"max":[1],"min":[0],"type":"SCALAR"},{"bufferView":101,"componentType":5126,"count":16,"max":[0.3826834261417389,0,0,1],"min":[-0.3826834261417389,0,0,0.9238795042037964],"type":"VEC4"},{"bufferView":102,"componentType":5126,"count":1,"max":[0],"min":[0],"type":"SCALAR"},{"bufferView":103,"componentType":5126,"count":1,"max":[0.1949499547481537,-0.3688376843929291,-0.9083613753318787,0.028860347345471382],"min":[0.1949499547481537,-0.3688376843929291,-0.9083613753318787,0.028860347345471382],"type":"VEC4"},{"bufferView":104,"componentType":5126,"count":1,"max":[0],"min":[0],"type":"SCALAR"},{"bufferView":105,"componentType":5126,"count":1,"max":[0.902297854423523,-0.03333773463964462,-0.22663246095180511,0.3652189373970032],"min":[0.902297854423523,-0.03333773463964462,-0.22663246095180511,0.3652189373970032],"type":"VEC4"},{"bufferView":106,"componentType":5126,"count":1,"max":[0],"min":[0],"type":"SCALAR"},{"bufferView":107,"componentType":5126,"count":1,"max":[-0.022740008309483528,0.04312296211719513,-0.020837323740124702,0.9985935688018799],"min":[-0.022740008309483528,0.04312296211719513,-0.020837323740124702,0.9985935688018799],"type":"VEC4"},{"bufferView":108,"componentType":5126,"count":1,"max":[0],"min":[0],"type":"SCALAR"},{"bufferView":109,"componentType":5126,"count":1,"max":[-0.3125,0.75,-0.125],"min":[-0.3125,0.75,-0.125],"type":"VEC3"},{"bufferView":110,"componentType":5126,"count":1,"max":[0],"min":[0],"type":"SCALAR"},{"bufferView":111,"componentType":5126,"count":1,"max":[-0.022280029952526093,-0.02132863737642765,0.021328801289200783,0.9992966651916504],"min":[-0.022280029952526093,-0.02132863737642765,0.021328801289200783,0.9992966651916504],"type":"VEC4"},{"bufferView":112,"componentType":5126,"count":2,"max":[0.5],"min":[0],"type":"SCALAR"},{"bufferView":113,"componentType":5126,"count":2,"max":[0.19594614207744598,0,0,0.9807852506637573],"min":[0.19509032368659973,0,0,0.9806146621704102],"type":"VEC4"},{"bufferView":114,"componentType":5126,"count":1,"max":[0],"min":[0],"type":"SCALAR"},{"bufferView":115,"componentType":5126,"count":1,"max":[-0.022740008309483528,0.04312296211719513,-0.020837323740124702,0.9985935688018799],"min":[-0.022740008309483528,0.04312296211719513,-0.020837323740124702,0.9985935688018799],"type":"VEC4"},{"bufferView":116,"componentType":5126,"count":1,"max":[0],"min":[0],"type":"SCALAR"},{"bufferView":117,"componentType":5126,"count":1,"max":[-0.3125,0.75,-0.125],"min":[-0.3125,0.75,-0.125],"type":"VEC3"},{"bufferView":118,"componentType":5126,"count":1,"max":[0],"min":[0],"type":"SCALAR"},{"bufferView":119,"componentType":5126,"count":1,"max":[-0.022280029952526093,-0.02132863737642765,0.021328801289200783,0.9992966651916504],"min":[-0.022280029952526093,-0.02132863737642765,0.021328801289200783,0.9992966651916504],"type":"VEC4"},{"bufferView":120,"componentType":5126,"count":1,"max":[0],"min":[0],"type":"SCALAR"},{"bufferView":121,"componentType":5126,"count":1,"max":[0.1949499547481537,-0.3688376843929291,-0.9083613753318787,0.028860347345471382],"min":[0.1949499547481537,-0.3688376843929291,-0.9083613753318787,0.028860347345471382],"type":"VEC4"},{"bufferView":122,"componentType":5126,"count":1,"max":[0],"min":[0],"type":"SCALAR"},{"bufferView":123,"componentType":5126,"count":1,"max":[0.6282382607460022,-0.31814053654670715,0.31200024485588074],"min":[0.6282382607460022,-0.31814053654670715,0.31200024485588074],"type":"VEC3"},{"bufferView":124,"componentType":5126,"count":1,"max":[0],"min":[0],"type":"SCALAR"},{"bufferView":125,"componentType":5126,"count":1,"max":[0.902297854423523,-0.03333773463964462,-0.22663246095180511,0.3652189373970032],"min":[0.902297854423523,-0.03333773463964462,-0.22663246095180511,0.3652189373970032],"type":"VEC4"},{"bufferView":126,"componentType":5126,"count":1,"max":[0],"min":[0],"type":"SCALAR"},{"bufferView":127,"componentType":5126,"count":1,"max":[0.7196998596191406,-0.6288394331932068,-0.2942526638507843,-0.0029056870844215155],"min":[0.7196998596191406,-0.6288394331932068,-0.2942526638507843,-0.0029056870844215155],"type":"VEC4"},{"bufferView":128,"componentType":5126,"count":1,"max":[0],"min":[0],"type":"SCALAR"},{"bufferView":129,"componentType":5126,"count":1,"max":[0.6275243759155273,-0.38631436228752136,0.31732311844825745],"min":[0.6275243759155273,-0.38631436228752136,0.31732311844825745],"type":"VEC3"},{"bufferView":130,"componentType":5126,"count":1,"max":[0],"min":[0],"type":"SCALAR"},{"bufferView":131,"componentType":5126,"count":1,"max":[0.3406924307346344,0.04402872547507286,-0.6989138722419739,0.627303421497345],"min":[0.3406924307346344,0.04402872547507286,-0.6989138722419739,0.627303421497345],"type":"VEC4"},{"bufferView":132,"componentType":5126,"count":1,"max":[0],"min":[0],"type":"SCALAR"},{"bufferView":133,"componentType":5126,"count":1,"max":[-0.625,-0.3328374922275543,0.3499999940395355],"min":[-0.625,-0.3328374922275543,0.3499999940395355],"type":"VEC3"},{"bufferView":134,"componentType":5126,"count":1,"max":[0],"min":[0],"type":"SCALAR"},{"bufferView":135,"componentType":5126,"count":1,"max":[0.042172860354185104,0.06627591699361801,-0.022698894143104553,0.9966512322425842],"min":[0.042172860354185104,0.06627591699361801,-0.022698894143104553,0.9966512322425842],"type":"VEC4"},{"bufferView":136,"componentType":5126,"count":1,"max":[0],"min":[0],"type":"SCALAR"},{"bufferView":137,"componentType":5126,"count":1,"max":[-0.3125,0.9375,-0.25],"min":[-0.3125,0.9375,-0.25],"type":"VEC3"},{"bufferView":138,"componentType":5126,"count":1,"max":[0],"min":[0],"type":"SCALAR"},{"bufferView":139,"componentType":5126,"count":1,"max":[-0.11831571906805038,-0.1252312809228897,0.04540770873427391,0.9840003252029419],"min":[-0.11831571906805038,-0.1252312809228897,0.04540770873427391,0.9840003252029419],"type":"VEC4"},{"bufferView":140,"componentType":5126,"count":2,"max":[0.5],"min":[0],"type":"SCALAR"},{"bufferView":141,"componentType":5126,"count":2,"max":[-0.19509032368659973,0,0,0.9807852506637573],"min":[-0.19594614207744598,0,0,0.9806146621704102],"type":"VEC4"},{"bufferView":142,"componentType":5126,"count":1,"max":[0],"min":[0],"type":"SCALAR"},{"bufferView":143,"componentType":5126,"count":1,"max":[0.042172860354185104,0.06627591699361801,-0.022698894143104553,0.9966512322425842],"min":[0.042172860354185104,0.06627591699361801,-0.022698894143104553,0.9966512322425842],"type":"VEC4"},{"bufferView":144,"componentType":5126,"count":1,"max":[0],"min":[0],"type":"SCALAR"},{"bufferView":145,"componentType":5126,"count":1,"max":[-0.3125,0.9375,-0.25],"min":[-0.3125,0.9375,-0.25],"type":"VEC3"},{"bufferView":146,"componentType":5126,"count":1,"max":[0],"min":[0],"type":"SCALAR"},{"bufferView":147,"componentType":5126,"count":1,"max":[-0.11831571906805038,-0.1252312809228897,0.04540770873427391,0.9840003252029419],"min":[-0.11831571906805038,-0.1252312809228897,0.04540770873427391,0.9840003252029419],"type":"VEC4"},{"bufferView":148,"componentType":5126,"count":1,"max":[0],"min":[0],"type":"SCALAR"},{"bufferView":149,"componentType":5126,"count":1,"max":[0.7196998596191406,-0.6288394331932068,-0.2942526638507843,-0.0029056870844215155],"min":[0.7196998596191406,-0.6288394331932068,-0.2942526638507843,-0.0029056870844215155],"type":"VEC4"},{"bufferView":150,"componentType":5126,"count":1,"max":[0],"min":[0],"type":"SCALAR"},{"bufferView":151,"componentType":5126,"count":1,"max":[0.6317752599716187,-0.38533419370651245,0.3156079947948456],"min":[0.6317752599716187,-0.38533419370651245,0.3156079947948456],"type":"VEC3"},{"bufferView":152,"componentType":5126,"count":1,"max":[0],"min":[0],"type":"SCALAR"},{"bufferView":153,"componentType":5126,"count":1,"max":[0.3406924307346344,0.04402872547507286,-0.6989138722419739,0.627303421497345],"min":[0.3406924307346344,0.04402872547507286,-0.6989138722419739,0.627303421497345],"type":"VEC4"},{"bufferView":154,"componentType":5126,"count":1,"max":[0],"min":[0],"type":"SCALAR"},{"bufferView":155,"componentType":5126,"count":1,"max":[-0.625,-0.3328374922275543,0.3499999940395355],"min":[-0.625,-0.3328374922275543,0.3499999940395355],"type":"VEC3"},{"bufferView":156,"componentType":5126,"count":16,"max":[1],"min":[0],"type":"SCALAR"},{"bufferView":157,"componentType":5126,"count":16,"max":[2.3432602348612458e-17,0.3826834261417389,0.9659258127212524,5.914589533937914e-17],"min":[1.5848095630968816e-17,0.258819043636322,0.9238795042037964,5.657130560897519e-17],"type":"VEC4"},{"bufferView":158,"componentType":5126,"count":16,"max":[1],"min":[0],"type":"SCALAR"},{"bufferView":159,"componentType":5126,"count":16,"max":[0.9659258127212524,0,0,0.3826834261417389],"min":[0.9238795042037964,0,0,0.258819043636322],"type":"VEC4"},{"bufferView":160,"componentType":5126,"count":17,"max":[1],"min":[0],"type":"SCALAR"},{"bufferView":161,"componentType":5126,"count":17,"max":[0.10775036364793777,0,0,0.9999473690986633],"min":[-0.11428176611661911,0,0,0.9934483766555786],"type":"VEC4"},{"bufferView":162,"componentType":5126,"count":12,"max":[0.625],"min":[0],"type":"SCALAR"},{"bufferView":163,"componentType":5126,"count":12,"max":[-0.3125,1.125,0],"min":[-0.3125,0.625,-0.3528499901294708],"type":"VEC3"},{"bufferView":164,"componentType":5126,"count":16,"max":[1],"min":[0],"type":"SCALAR"},{"bufferView":165,"componentType":5126,"count":16,"max":[0.09714864194393158,0,0,1],"min":[-0.09714864194393158,0,0,0.9952698945999146],"type":"VEC4"},{"bufferView":166,"componentType":5126,"count":17,"max":[1],"min":[0],"type":"SCALAR"},{"bufferView":167,"componentType":5126,"count":17,"max":[0.10775036364793777,0,0,0.9999473690986633],"min":[-0.11428176611661911,0,0,0.9934483766555786],"type":"VEC4"},{"bufferView":168,"componentType":5126,"count":12,"max":[0.625],"min":[0],"type":"SCALAR"},{"bufferView":169,"componentType":5126,"count":12,"max":[-0.3125,1.125,0],"min":[-0.3125,0.625,-0.3528499901294708],"type":"VEC3"},{"bufferView":170,"componentType":5126,"count":16,"max":[1],"min":[0],"type":"SCALAR"},{"bufferView":171,"componentType":5126,"count":16,"max":[0.09714864194393158,0,0,1],"min":[-0.09714864194393158,0,0,0.9952698945999146],"type":"VEC4"},{"bufferView":172,"componentType":5126,"count":1,"max":[0],"min":[0],"type":"SCALAR"},{"bufferView":173,"componentType":5126,"count":1,"max":[0.2159775197505951,0.2731948792934418,-0.014155963435769081,0.9372928142547607],"min":[0.2159775197505951,0.2731948792934418,-0.014155963435769081,0.9372928142547607],"type":"VEC4"},{"bufferView":174,"componentType":5126,"count":1,"max":[0],"min":[0],"type":"SCALAR"},{"bufferView":175,"componentType":5126,"count":1,"max":[-0.09668842703104019,0.008267045021057129,0.9532365798950195,0.2862219512462616],"min":[-0.09668842703104019,0.008267045021057129,0.9532365798950195,0.2862219512462616],"type":"VEC4"},{"bufferView":176,"componentType":5126,"count":1,"max":[0],"min":[0],"type":"SCALAR"},{"bufferView":177,"componentType":5126,"count":1,"max":[0.9426170587539673,0.14508309960365295,0.045744121074676514,-0.2972061336040497],"min":[0.9426170587539673,0.14508309960365295,0.045744121074676514,-0.2972061336040497],"type":"VEC4"},{"bufferView":178,"componentType":5126,"count":1,"max":[0],"min":[0],"type":"SCALAR"},{"bufferView":179,"componentType":5126,"count":1,"max":[0.8314695954322815,0,0,0.5555702447891235],"min":[0.8314695954322815,0,0,0.5555702447891235],"type":"VEC4"},{"bufferView":180,"componentType":5126,"count":1,"max":[0],"min":[0],"type":"SCALAR"},{"bufferView":181,"componentType":5126,"count":1,"max":[-0.31312501430511475,0.625,0],"min":[-0.31312501430511475,0.625,0],"type":"VEC3"},{"bufferView":182,"componentType":5126,"count":1,"max":[0],"min":[0],"type":"SCALAR"},{"bufferView":183,"componentType":5126,"count":1,"max":[0.6259234547615051,0,0,0.7798844575881958],"min":[0.6259234547615051,0,0,0.7798844575881958],"type":"VEC4"},{"bufferView":184,"componentType":5126,"count":1,"max":[0],"min":[0],"type":"SCALAR"},{"bufferView":185,"componentType":5126,"count":1,"max":[0.8314695954322815,0,0,0.5555702447891235],"min":[0.8314695954322815,0,0,0.5555702447891235],"type":"VEC4"},{"bufferView":186,"componentType":5126,"count":1,"max":[0],"min":[0],"type":"SCALAR"},{"bufferView":187,"componentType":5126,"count":1,"max":[-0.31312501430511475,0.625,0],"min":[-0.31312501430511475,0.625,0],"type":"VEC3"},{"bufferView":188,"componentType":5126,"count":1,"max":[0],"min":[0],"type":"SCALAR"},{"bufferView":189,"componentType":5126,"count":1,"max":[0.6259234547615051,0,0,0.7798844575881958],"min":[0.6259234547615051,0,0,0.7798844575881958],"type":"VEC4"}],"materials":[{"pbrMetallicRoughness":{"metallicFactor":0,"roughnessFactor":1},"alphaMode":"MASK","alphaCutoff":0.05,"doubleSided":true},{"pbrMetallicRoughness":{"metallicFactor":0,"roughnessFactor":1},"alphaMode":"MASK","alphaCutoff":0.05,"doubleSided":true},{"pbrMetallicRoughness":{"metallicFactor":0,"roughnessFactor":1,"baseColorTexture":{"index":0}},"alphaMode":"MASK","alphaCutoff":0.05,"doubleSided":true},{"pbrMetallicRoughness":{"metallicFactor":0,"roughnessFactor":1,"baseColorTexture":{"index":1}},"alphaMode":"MASK","alphaCutoff":0.05,"doubleSided":true}],"meshes":[{"primitives":[{"mode":4,"attributes":{"POSITION":0,"NORMAL":1,"TEXCOORD_0":2},"indices":3,"material":0}]},{"primitives":[{"mode":4,"attributes":{"POSITION":4,"NORMAL":5,"TEXCOORD_0":6},"indices":7,"material":0}]},{"primitives":[{"mode":4,"attributes":{"POSITION":8,"NORMAL":9,"TEXCOORD_0":10},"indices":11,"material":0}]},{"primitives":[{"mode":4,"attributes":{"POSITION":12,"NORMAL":13,"TEXCOORD_0":14},"indices":15,"material":1}]},{"primitives":[{"mode":4,"attributes":{"POSITION":16,"NORMAL":17,"TEXCOORD_0":18},"indices":19,"material":0}]},{"primitives":[{"mode":4,"attributes":{"POSITION":20,"NORMAL":21,"TEXCOORD_0":22},"indices":23,"material":1}]},{"primitives":[{"mode":4,"attributes":{"POSITION":24,"NORMAL":25,"TEXCOORD_0":26},"indices":27,"material":0}]},{"primitives":[{"mode":4,"attributes":{"POSITION":28,"NORMAL":29,"TEXCOORD_0":30},"indices":31,"material":0}]},{"primitives":[{"mode":4,"attributes":{"POSITION":32,"NORMAL":33,"TEXCOORD_0":34},"indices":35,"material":2}]},{"primitives":[{"mode":4,"attributes":{"POSITION":36,"NORMAL":37,"TEXCOORD_0":38},"indices":39,"material":2}]},{"primitives":[{"mode":4,"attributes":{"POSITION":40,"NORMAL":41,"TEXCOORD_0":42},"indices":43,"material":2}]},{"primitives":[{"mode":4,"attributes":{"POSITION":44,"NORMAL":45,"TEXCOORD_0":46},"indices":47,"material":3}]},{"primitives":[{"mode":4,"attributes":{"POSITION":48,"NORMAL":49,"TEXCOORD_0":50},"indices":51,"material":3}]}],"textures":[{"sampler":0,"source":0,"name":"RadianPants (1).png"},{"sampler":1,"source":1,"name":"New Project (91).png"}],"samplers":[{"magFilter":9728,"minFilter":9728,"wrapS":33071,"wrapT":33071},{"magFilter":9728,"minFilter":9728,"wrapS":33071,"wrapT":33071}],"images":[{"mimeType":"image/png","name":"RadianPants (1).png","uri":"RadianPants (1).png"},{"mimeType":"image/png","name":"New Project (91).png","uri":"New Project (91).png"}],"animations":[{"name":"idle","samplers":[{"input":52,"output":53,"interpolation":"LINEAR"},{"input":54,"output":55,"interpolation":"LINEAR"},{"input":56,"output":57,"interpolation":"LINEAR"},{"input":58,"output":59,"interpolation":"LINEAR"},{"input":60,"output":61,"interpolation":"LINEAR"},{"input":62,"output":63,"interpolation":"LINEAR"},{"input":64,"output":65,"interpolation":"LINEAR"},{"input":66,"output":67,"interpolation":"LINEAR"},{"input":68,"output":69,"interpolation":"LINEAR"},{"input":70,"output":71,"interpolation":"LINEAR"},{"input":72,"output":73,"interpolation":"LINEAR"},{"input":74,"output":75,"interpolation":"LINEAR"},{"input":76,"output":77,"interpolation":"LINEAR"},{"input":78,"output":79,"interpolation":"LINEAR"}],"channels":[{"sampler":0,"target":{"node":1,"path":"rotation"}},{"sampler":1,"target":{"node":1,"path":"translation"}},{"sampler":2,"target":{"node":3,"path":"rotation"}},{"sampler":3,"target":{"node":3,"path":"translation"}},{"sampler":4,"target":{"node":12,"path":"rotation"}},{"sampler":5,"target":{"node":14,"path":"rotation"}},{"sampler":6,"target":{"node":10,"path":"translation"}},{"sampler":7,"target":{"node":25,"path":"rotation"}},{"sampler":8,"target":{"node":27,"path":"rotation"}},{"sampler":9,"target":{"node":18,"path":"rotation"}},{"sampler":10,"target":{"node":18,"path":"translation"}},{"sampler":11,"target":{"node":20,"path":"rotation"}},{"sampler":12,"target":{"node":20,"path":"translation"}},{"sampler":13,"target":{"node":22,"path":"translation"}}]},{"name":"walk","samplers":[{"input":80,"output":81,"interpolation":"LINEAR"},{"input":82,"output":83,"interpolation":"LINEAR"},{"input":84,"output":85,"interpolation":"LINEAR"},{"input":86,"output":87,"interpolation":"LINEAR"},{"input":88,"output":89,"interpolation":"LINEAR"},{"input":90,"output":91,"interpolation":"LINEAR"},{"input":92,"output":93,"interpolation":"LINEAR"},{"input":94,"output":95,"interpolation":"LINEAR"},{"input":96,"output":97,"interpolation":"LINEAR"},{"input":98,"output":99,"interpolation":"LINEAR"},{"input":100,"output":101,"interpolation":"LINEAR"}],"channels":[{"sampler":0,"target":{"node":1,"path":"rotation"}},{"sampler":1,"target":{"node":3,"path":"rotation"}},{"sampler":2,"target":{"node":12,"path":"rotation"}},{"sampler":3,"target":{"node":12,"path":"translation"}},{"sampler":4,"target":{"node":14,"path":"rotation"}},{"sampler":5,"target":{"node":25,"path":"rotation"}},{"sampler":6,"target":{"node":25,"path":"translation"}},{"sampler":7,"target":{"node":27,"path":"rotation"}},{"sampler":8,"target":{"node":18,"path":"rotation"}},{"sampler":9,"target":{"node":18,"path":"translation"}},{"sampler":10,"target":{"node":20,"path":"rotation"}}]},{"name":"Jump","samplers":[{"input":102,"output":103,"interpolation":"LINEAR"},{"input":104,"output":105,"interpolation":"LINEAR"},{"input":106,"output":107,"interpolation":"LINEAR"},{"input":108,"output":109,"interpolation":"LINEAR"},{"input":110,"output":111,"interpolation":"LINEAR"},{"input":112,"output":113,"interpolation":"LINEAR"},{"input":114,"output":115,"interpolation":"LINEAR"},{"input":116,"output":117,"interpolation":"LINEAR"},{"input":118,"output":119,"interpolation":"LINEAR"},{"input":120,"output":121,"interpolation":"LINEAR"},{"input":122,"output":123,"interpolation":"LINEAR"},{"input":124,"output":125,"interpolation":"LINEAR"}],"channels":[{"sampler":0,"target":{"node":1,"path":"rotation"}},{"sampler":1,"target":{"node":3,"path":"rotation"}},{"sampler":2,"target":{"node":12,"path":"rotation"}},{"sampler":3,"target":{"node":12,"path":"translation"}},{"sampler":4,"target":{"node":14,"path":"rotation"}},{"sampler":5,"target":{"node":6,"path":"rotation"}},{"sampler":6,"target":{"node":25,"path":"rotation"}},{"sampler":7,"target":{"node":25,"path":"translation"}},{"sampler":8,"target":{"node":27,"path":"rotation"}},{"sampler":9,"target":{"node":18,"path":"rotation"}},{"sampler":10,"target":{"node":18,"path":"translation"}},{"sampler":11,"target":{"node":20,"path":"rotation"}}]},{"name":"Fall","samplers":[{"input":126,"output":127,"interpolation":"LINEAR"},{"input":128,"output":129,"interpolation":"LINEAR"},{"input":130,"output":131,"interpolation":"LINEAR"},{"input":132,"output":133,"interpolation":"LINEAR"},{"input":134,"output":135,"interpolation":"LINEAR"},{"input":136,"output":137,"interpolation":"LINEAR"},{"input":138,"output":139,"interpolation":"LINEAR"},{"input":140,"output":141,"interpolation":"LINEAR"},{"input":142,"output":143,"interpolation":"LINEAR"},{"input":144,"output":145,"interpolation":"LINEAR"},{"input":146,"output":147,"interpolation":"LINEAR"},{"input":148,"output":149,"interpolation":"LINEAR"},{"input":150,"output":151,"interpolation":"LINEAR"},{"input":152,"output":153,"interpolation":"LINEAR"},{"input":154,"output":155,"interpolation":"LINEAR"}],"channels":[{"sampler":0,"target":{"node":1,"path":"rotation"}},{"sampler":1,"target":{"node":1,"path":"translation"}},{"sampler":2,"target":{"node":3,"path":"rotation"}},{"sampler":3,"target":{"node":3,"path":"translation"}},{"sampler":4,"target":{"node":12,"path":"rotation"}},{"sampler":5,"target":{"node":12,"path":"translation"}},{"sampler":6,"target":{"node":14,"path":"rotation"}},{"sampler":7,"target":{"node":6,"path":"rotation"}},{"sampler":8,"target":{"node":25,"path":"rotation"}},{"sampler":9,"target":{"node":25,"path":"translation"}},{"sampler":10,"target":{"node":27,"path":"rotation"}},{"sampler":11,"target":{"node":18,"path":"rotation"}},{"sampler":12,"target":{"node":18,"path":"translation"}},{"sampler":13,"target":{"node":20,"path":"rotation"}},{"sampler":14,"target":{"node":20,"path":"translation"}}]},{"name":"Climb","samplers":[{"input":156,"output":157,"interpolation":"LINEAR"},{"input":158,"output":159,"interpolation":"LINEAR"},{"input":160,"output":161,"interpolation":"LINEAR"},{"input":162,"output":163,"interpolation":"LINEAR"},{"input":164,"output":165,"interpolation":"LINEAR"},{"input":166,"output":167,"interpolation":"LINEAR"},{"input":168,"output":169,"interpolation":"LINEAR"},{"input":170,"output":171,"interpolation":"LINEAR"}],"channels":[{"sampler":0,"target":{"node":1,"path":"rotation"}},{"sampler":1,"target":{"node":3,"path":"rotation"}},{"sampler":2,"target":{"node":12,"path":"rotation"}},{"sampler":3,"target":{"node":12,"path":"translation"}},{"sampler":4,"target":{"node":14,"path":"rotation"}},{"sampler":5,"target":{"node":25,"path":"rotation"}},{"sampler":6,"target":{"node":25,"path":"translation"}},{"sampler":7,"target":{"node":27,"path":"rotation"}}]},{"name":"animation","samplers":[{"input":172,"output":173,"interpolation":"LINEAR"},{"input":174,"output":175,"interpolation":"LINEAR"},{"input":176,"output":177,"interpolation":"LINEAR"},{"input":178,"output":179,"interpolation":"LINEAR"},{"input":180,"output":181,"interpolation":"LINEAR"},{"input":182,"output":183,"interpolation":"LINEAR"},{"input":184,"output":185,"interpolation":"LINEAR"},{"input":186,"output":187,"interpolation":"LINEAR"},{"input":188,"output":189,"interpolation":"LINEAR"}],"channels":[{"sampler":0,"target":{"node":16,"path":"rotation"}},{"sampler":1,"target":{"node":1,"path":"rotation"}},{"sampler":2,"target":{"node":3,"path":"rotation"}},{"sampler":3,"target":{"node":12,"path":"rotation"}},{"sampler":4,"target":{"node":12,"path":"translation"}},{"sampler":5,"target":{"node":14,"path":"rotation"}},{"sampler":6,"target":{"node":25,"path":"rotation"}},{"sampler":7,"target":{"node":25,"path":"translation"}},{"sampler":8,"target":{"node":27,"path":"rotation"}}]}]}
